# xmcd CD database file
#
# Track frame offsets:
#	150
#	17598
#	34046
#	52828
#	68422
#	88434
#	106175
#	122252
#	131817
#	145695
#	162851
#	179701
#	197834
#	213375
#	242581
#
# Disc length: 3380 seconds
#
# Revision: 0
# Processed by: cddbd v1.5.2PL0 Copyright (c) Steve Scherf et al.
# Submitted via: CDex 1.51
#
DISCID=c90d320f
DTITLE=Tok Tok Tok - She And He
DYEAR=2008
DGENRE=Jazz
TTITLE0=Although He Hurts Me
TTITLE1=The Daydream
TTITLE2=The Love We Share
TTITLE3=Longing For Brad
TTITLE4=Lewis and Ruth
TTITLE5=As We Are
TTITLE6=The Game Is Over
TTITLE7=Coracao
TTITLE8=Crash Crush
TTITLE9=Living Hell
TTITLE10=Our Little Song
TTITLE11=She And He
TTITLE12=Vertigo
TTITLE13=Harmless In The Beginning
TTITLE14=Data 15
EXTD=YEAR: 2008
EXTT0=
EXTT1=
EXTT2=
EXTT3=
EXTT4=
EXTT5=
EXTT6=
EXTT7=
EXTT8=
EXTT9=
EXTT10=
EXTT11=
EXTT12=
EXTT13=
EXTT14=
PLAYORDER=
